<?xml version="1.0" encoding="UTF-8"?>
<svg xmlns="http://www.w3.org/2000/svg" xmlns:xlink="http://www.w3.org/1999/xlink" width="6912pt" height="2592.000001pt" viewBox="0 0 6912 2592.000001" version="1.2">
<defs>
<clipPath id="clip1">
  <path d="M 1.332031 0 L 6910.667969 0 L 6910.667969 2591 L 1.332031 2591 Z M 1.332031 0 "/>
</clipPath>
<clipPath id="clip2">
  <path d="M 1.332031 0 L 6910.667969 0 L 6910.667969 2241 L 1.332031 2241 Z M 1.332031 0 "/>
</clipPath>
<clipPath id="clip3">
  <path d="M 6910.667969 849.800781 L 1.332031 2240.53125 L 1.332031 0 L 6910.667969 0 Z M 6910.667969 849.800781 "/>
</clipPath>
<clipPath id="clip4">
  <path d="M 6910.667969 849.800781 L 1.332031 2240.53125 L 1.332031 0 L 6910.667969 0 Z M 6910.667969 849.800781 "/>
</clipPath>
<clipPath id="clip5">
  <path d="M 1.332031 1127 L 3537 1127 L 3537 2563 L 1.332031 2563 Z M 1.332031 1127 "/>
</clipPath>
<clipPath id="clip6">
  <path d="M -405.566406 1910.3125 L 3424.382812 1070.300781 L 3579.859375 1779.171875 L -250.09375 2619.183594 Z M -405.566406 1910.3125 "/>
</clipPath>
<clipPath id="clip7">
  <path d="M -405.566406 1910.3125 L 3424.382812 1070.300781 L 3579.859375 1779.171875 L -250.09375 2619.183594 Z M -405.566406 1910.3125 "/>
</clipPath>
<clipPath id="clip8">
  <path d="M 3755 0 L 6910.667969 0 L 6910.667969 767 L 3755 767 Z M 3755 0 "/>
</clipPath>
<clipPath id="clip9">
  <path d="M 4175.976562 0 L 3652.707031 114.765625 L 3808.179688 823.636719 L 6910.667969 143.179688 L 6910.667969 0 Z M 4175.976562 0 "/>
</clipPath>
<clipPath id="clip10">
  <path d="M 4175.976562 0 L 3652.707031 114.765625 L 3808.179688 823.636719 L 6910.667969 143.179688 L 6910.667969 0 Z M 4175.976562 0 "/>
</clipPath>
</defs>
<g id="surface1">
<g clip-path="url(#clip1)" clip-rule="nonzero">
<path style=" stroke:none;fill-rule:nonzero;fill:rgb(100%,100%,100%);fill-opacity:1;" d="M 1.332031 0 L 6910.667969 0 L 6910.667969 2598.496094 L 1.332031 2598.496094 Z M 1.332031 0 "/>
<path style=" stroke:none;fill-rule:nonzero;fill:rgb(100%,100%,100%);fill-opacity:1;" d="M 1.332031 0 L 6910.667969 0 L 6910.667969 2591 L 1.332031 2591 Z M 1.332031 0 "/>
<path style=" stroke:none;fill-rule:nonzero;fill:rgb(31.369019%,17.649841%,49.01886%);fill-opacity:1;" d="M 1.332031 0 L 6910.667969 0 L 6910.667969 2591 L 1.332031 2591 Z M 1.332031 0 "/>
</g>
<g clip-path="url(#clip2)" clip-rule="nonzero">
<g clip-path="url(#clip3)" clip-rule="evenodd">
<g clip-path="url(#clip4)" clip-rule="evenodd">
<path style=" stroke:none;fill-rule:evenodd;fill:rgb(100%,85.099792%,23.139954%);fill-opacity:1;" d="M 6971.644531 -1602.03125 C 6886.933594 -1613.84375 6779.476562 -1603.015625 6670.582031 -1590.542969 C 6676.664062 -1597.476562 6677.75 -1606.523438 6674.800781 -1617.039062 C 6614.332031 -1606.941406 6593.324219 -1581.328125 6527.339844 -1573.339844 C 6544.90625 -1590.269531 6526.53125 -1597.472656 6495.328125 -1585.898438 C 6510.695312 -1605.5 6570.914062 -1607.550781 6572.914062 -1589.367188 C 6584.445312 -1593.453125 6579.921875 -1603.546875 6570.34375 -1601.621094 C 6724.976562 -1624.125 6877.507812 -1681.304688 7013.78125 -1681.53125 C 6926.167969 -1719.132812 6676.734375 -1667.785156 6554.980469 -1675.359375 C 6559.390625 -1691.09375 6611.765625 -1693.433594 6604.488281 -1672.867188 C 6615.59375 -1681.640625 6638.164062 -1686.082031 6638.128906 -1699.15625 C 6744.0625 -1699.507812 6861.4375 -1715.242188 6962.128906 -1741.113281 C 7087.171875 -1720.289062 7247.246094 -1734.339844 7329.285156 -1670.28125 C 7343.539062 -1621.132812 7335.53125 -1591.796875 7353.722656 -1553.511719 C 7334.273438 -1495.398438 7311.347656 -1438.558594 7260.003906 -1392.921875 C 7311.097656 -1350.566406 7342.71875 -1317.269531 7355.257812 -1265.28125 C 7345.011719 -1252.734375 7290.667969 -1228.714844 7333.566406 -1228.625 C 7315.675781 -1216.925781 7297.125 -1205.40625 7282.429688 -1192.273438 C 7290.453125 -1177.171875 7338.511719 -1182.378906 7318.238281 -1161.375 C 7286.753906 -1149.640625 7280.332031 -1162.984375 7251.339844 -1153.828125 C 7265.792969 -1119.152344 7337.777344 -1117.960938 7365.714844 -1075.097656 C 7400.113281 -1022.320312 7371.246094 -944.972656 7388.023438 -874.527344 C 7296.242188 -855.429688 7347.089844 -771.492188 7217.101562 -755.503906 C 7321.722656 -735.550781 7470.96875 -723.4375 7591.53125 -743.964844 C 7618.105469 -723.355469 7662.332031 -663.523438 7614.621094 -633.363281 C 7627.847656 -624.398438 7643.425781 -617.667969 7658.585938 -610.441406 C 7642 -591.21875 7562.855469 -590.34375 7599.316406 -566.011719 C 7508.59375 -531.867188 7382.820312 -529.496094 7327.007812 -464.273438 C 7331.28125 -448.726562 7364.082031 -461.664062 7377.761719 -455.589844 C 7383.90625 -440.527344 7367.652344 -416.074219 7378.703125 -404.488281 C 7433.960938 -402.320312 7409.925781 -386.582031 7458.878906 -395.605469 C 7450.738281 -376.210938 7435.488281 -359.644531 7399.609375 -351.175781 C 7431.539062 -341.09375 7484.203125 -351.800781 7502.339844 -327.726562 C 7401.179688 -276.839844 7350.445312 -287.496094 7232.929688 -258.546875 C 7409.121094 -261.617188 7569.765625 -249.101562 7719.445312 -225.546875 C 7726.644531 -199.066406 7733.863281 -172.488281 7710.929688 -172.4375 C 7732.566406 -156.753906 7743.664062 -173.835938 7756.519531 -188.363281 C 7777.460938 -137.445312 7789.28125 -106.082031 7846.613281 -85.332031 C 7836.871094 -37.789062 7767.941406 -41.878906 7713.652344 -19.113281 C 7727.980469 8.734375 7746.097656 32.707031 7792.101562 28.640625 C 7773.953125 90.644531 7612.636719 115.015625 7562.414062 147.136719 C 7591.359375 179.519531 7644.003906 137.253906 7693.722656 119.667969 C 7685.894531 147.304688 7718.15625 134.789062 7720.191406 152.652344 C 7554.304688 192.480469 7549.480469 245.882812 7371.425781 263.96875 C 7399.09375 425.148438 7292.753906 533.871094 7250.324219 667.628906 C 7165.691406 669.089844 7135.230469 703.460938 7098.542969 737.84375 C 7097.808594 755.847656 7148.566406 722.269531 7147.929688 740.257812 C 7078.929688 776.574219 6975.074219 793.945312 6871.730469 823.675781 C 6775.269531 851.503906 6692.492188 868.371094 6624.128906 856.28125 C 6152.878906 1014.675781 5764.207031 1042.761719 5261.144531 1173.089844 C 5248.804688 1155.121094 5290.351562 1158.285156 5284.101562 1142.71875 C 5127.605469 1173.496094 4862.882812 1274.746094 4703.867188 1270.3125 C 4674.796875 1282.183594 4686.578125 1253.023438 4670.605469 1251.566406 C 4552.609375 1279.160156 4453.71875 1340.285156 4370.507812 1314.257812 C 4199.6875 1338.878906 4022.5625 1427.070312 3892.078125 1414.292969 C 3400.164062 1522.132812 3006.914062 1624.441406 2583.222656 1662.171875 C 2344.851562 1698.3125 2155.464844 1753.460938 1914.695312 1789.050781 C 1942.199219 1752.886719 2020.746094 1736.660156 2085.214844 1714.960938 C 1996.355469 1722.257812 1854.460938 1748.742188 1736.949219 1781.324219 C 1344.007812 1890.316406 926.628906 1964.570312 516.40625 2030.007812 C 494.792969 2019.617188 517.316406 2022.660156 521.949219 2009.582031 C 437.949219 2005.929688 359.574219 2050.363281 289.996094 2070.910156 C 270.003906 2062.890625 285.683594 2055.683594 283.589844 2040.117188 C 201.679688 2048.402344 230.648438 2070.082031 185.515625 2086.226562 C 142.976562 2100.8125 195.175781 2067.671875 162.960938 2071.664062 C 142.363281 2073.007812 146.910156 2084.238281 148.058594 2094.078125 C 38.6875 2107.269531 -48.527344 2119.113281 -172.105469 2154.578125 C -210.179688 2165.5625 -168.035156 2137.664062 -195.984375 2133.945312 C -354.378906 2163.542969 -571.28125 2244.476562 -746.777344 2261.839844 C -830.027344 2270.1875 -879.886719 2289.671875 -971.921875 2309.027344 C -1050.628906 2325.492188 -1134.269531 2308.6875 -1224.703125 2316.921875 C -1299.011719 2323.78125 -1402.292969 2370.835938 -1515.445312 2377.625 C -1515.238281 2368.339844 -1487.96875 2369.703125 -1490.015625 2359.527344 C -1807.289062 2434.914062 -2199.128906 2515.339844 -2495.261719 2608.070312 C -2865 2657.988281 -3275.265625 2802.65625 -3606.207031 2865.84375 C -3600.09375 2854.957031 -3585.371094 2847.632812 -3561.859375 2843.730469 C -3889.8125 2884.097656 -4386.691406 2979.644531 -4795.582031 3075.964844 C -4833.890625 3087.308594 -4829.285156 3115.351562 -4884.195312 3120.070312 C -4902.03125 3160.414062 -4977.0625 3178.113281 -5024.023438 3200.648438 C -5032.261719 3204.589844 -5057.027344 3226.5 -5067.144531 3228.847656 C -5215.832031 3265.417969 -5194.027344 3142.667969 -5289.390625 3102.160156 C -5330.058594 3129.140625 -5374.53125 3145.464844 -5420.703125 3129.628906 C -5425.441406 3090.089844 -5356.070312 3079.863281 -5339.71875 3048.644531 C -5353.542969 3042.394531 -5396.480469 3039.511719 -5395.917969 3060.371094 C -5419.761719 3052.296875 -5423.316406 3032.558594 -5404.894531 3017.324219 C -5438.84375 3020.9375 -5423.324219 3043.875 -5457.273438 3047.492188 C -5463.957031 3035.441406 -5454.28125 3029.859375 -5452.976562 3020.875 C -5483.691406 3023.527344 -5479.640625 3038.496094 -5499.992188 3030.753906 C -5510.21875 2992.839844 -5512.199219 2958.25 -5480.367188 2936.890625 C -5677.140625 2935.695312 -5850.3125 2866.617188 -6023.894531 2819.742188 C -6027.375 2780.777344 -5981.710938 2761.101562 -5985.53125 2722 C -5875.042969 2676.191406 -5803.273438 2650.011719 -5665.082031 2616.484375 C -5645.183594 2599.8125 -5689.355469 2585.65625 -5665.925781 2565.363281 C -5625.246094 2563.199219 -5570.429688 2550.296875 -5549.035156 2515.257812 C -5585.324219 2513.425781 -5600.882812 2523.824219 -5645.355469 2522.601562 C -5642.0625 2506.984375 -5617.601562 2499.570312 -5614.304688 2483.957031 C -5681.066406 2460.742188 -5597.121094 2386.738281 -5641.3125 2354.933594 C -5628.222656 2337.453125 -5586.382812 2353.949219 -5555.574219 2343.492188 C -5608.78125 2334.472656 -5507.394531 2322.371094 -5495.078125 2305.148438 C -5501.640625 2293.179688 -5570.714844 2334.804688 -5553.847656 2304.621094 C -5645.890625 2333.222656 -5621.003906 2313.988281 -5694.515625 2334.078125 C -5701.980469 2238.191406 -5564.789062 2172.886719 -5420.941406 2097.3125 C -5446.148438 2082.972656 -5488.84375 2054.5 -5475.207031 2025.277344 C -5490.347656 2016.074219 -5525.660156 2046.4375 -5547.671875 2053.152344 C -5551.367188 2034.792969 -5527.660156 2027.21875 -5527.28125 2010.53125 C -5552.527344 2000.140625 -5542.875 2023.324219 -5572.894531 2026.355469 C -5552.546875 1984.570312 -5499.207031 1985.980469 -5459.898438 1957.925781 C -5507.304688 1943.171875 -5547.410156 1974.503906 -5600.570312 1987.382812 C -5598.546875 1976.800781 -5572.257812 1975.871094 -5586.890625 1958.882812 C -5613.8125 1963.367188 -5600.933594 1983.511719 -5640.617188 1982.882812 C -5649.183594 1964.566406 -5614.734375 1962.925781 -5629.511719 1942.125 C -5676.457031 1959.050781 -5734.34375 1976.828125 -5778.335938 1979.554688 C -5783.074219 1957.046875 -5750.386719 1949.21875 -5739.128906 1932.9375 C -5772.269531 1929.226562 -5790.828125 1949.988281 -5831.558594 1958.601562 C -5840.890625 1932.34375 -5846.816406 1903.945312 -5778.773438 1883.5 C -5784.738281 1869.851562 -5782.136719 1859.570312 -5775.820312 1850.71875 C -5818.707031 1841.390625 -5833.839844 1855.441406 -5919.082031 1867.820312 C -5939.59375 1843.292969 -5889.867188 1811.792969 -5905.097656 1794.40625 C -5939.980469 1754.703125 -5990.660156 1773.730469 -6063.179688 1788.949219 C -6038.046875 1758.039062 -6055.328125 1744.902344 -6029.132812 1717.722656 C -6079.746094 1708.703125 -6049.703125 1678.980469 -6055.199219 1639.804688 C -6038.519531 1635.511719 -6033.859375 1643.191406 -6016.398438 1638.117188 C -6008.300781 1567.960938 -5838.65625 1561.226562 -5831.898438 1490.613281 C -5877.773438 1487.074219 -5862.824219 1422.601562 -5906.148438 1416.265625 C -5869.972656 1325.195312 -5946.3125 1189.90625 -5775.53125 1151.6875 C -5790.832031 1127.253906 -5823.972656 1120.945312 -5877.015625 1134.425781 C -5874.117188 1104.460938 -5903.519531 1106.429688 -5939.617188 1115.359375 C -5930.957031 1081.011719 -5925.710938 1077.671875 -5968.636719 1070.21875 C -5936.9375 1007.460938 -5959 955.109375 -5932.175781 870.175781 C -5539.707031 813.5 -5001.507812 704.027344 -4655.636719 654.65625 C -4646.597656 652.628906 -4649.980469 645.628906 -4648.847656 640.417969 C -4567.5625 659.460938 -4456.511719 616.445312 -4387.550781 579.410156 C -4391.4375 585.386719 -4395.199219 591.4375 -4392.996094 599.820312 C -4351.179688 595.554688 -4342.378906 578.417969 -4300.566406 574.15625 C -4217.132812 570.859375 -3925.558594 471.988281 -3733.625 430.03125 C -3523.007812 383.902344 -3308.773438 310.878906 -3210.542969 262.96875 C -3166.3125 308.886719 -3062.945312 266.898438 -2950.894531 240.710938 C -2922.859375 232.472656 -2930.332031 259.828125 -2908.277344 257.46875 C -2856.226562 218.4375 -2680.398438 226.964844 -2621.351562 178.324219 C -2618.996094 161.136719 -2629.703125 156.957031 -2653.285156 165.648438 C -2591.109375 130.5 -2502.773438 137.636719 -2430.789062 106.328125 C -2438.222656 101.386719 -2453.6875 104.5 -2453.34375 91.761719 C -2323.539062 72.800781 -2183.0625 65.601562 -2093.535156 80.703125 C -2050.386719 58.832031 -2018.3125 72.207031 -1978.375 69.460938 C -1863.785156 61.558594 -1700.859375 -0.726562 -1568.269531 -29.074219 C -1159.691406 -116.609375 -750.484375 -163.882812 -374.476562 -265.730469 C -367.046875 -260.789062 -351.582031 -263.902344 -351.925781 -251.164062 C -55.4375 -315.828125 177.082031 -385.679688 469.527344 -442.050781 C 469.046875 -458.878906 446.695312 -453.859375 428.132812 -452.71875 C 501.546875 -474.347656 576.511719 -465.558594 640.867188 -465.117188 C 697.246094 -521.320312 757.597656 -482.488281 848.457031 -502.023438 C 856.578125 -489.535156 832.484375 -489.566406 833.554688 -479.605469 C 1143.445312 -519.972656 1397.367188 -670.757812 1720.640625 -684.328125 C 1730.585938 -697.335938 1748.078125 -707.398438 1773.144531 -714.414062 C 1772.277344 -673.332031 1682.996094 -667.09375 1641.410156 -642.109375 C 1785.59375 -670.09375 1955.257812 -725.21875 2132.933594 -725.574219 C 2180.695312 -795.203125 2357.871094 -794.421875 2490.957031 -838.859375 C 2495.660156 -829.421875 2484.328125 -826.414062 2485.414062 -818.433594 C 2529.597656 -827.949219 2558.847656 -822.414062 2600.578125 -829.671875 C 2596.957031 -850.746094 2562.039062 -840.605469 2531.105469 -834.378906 C 2599.894531 -879.996094 2715.628906 -848.675781 2739.058594 -916.417969 C 2791.394531 -919.476562 2825.519531 -926.34375 2849.0625 -952.265625 C 2853.765625 -942.828125 2842.429688 -939.820312 2843.539062 -931.734375 C 3110.4375 -949.949219 3405.546875 -1013.710938 3742.191406 -1081.054688 C 3733 -1104.019531 3675.34375 -1078.398438 3652.65625 -1087.953125 C 3965.472656 -1182.894531 4343.601562 -1164.316406 4656.152344 -1297.726562 C 4605.695312 -1307.503906 4500.96875 -1282.585938 4463.402344 -1283.015625 C 4443.242188 -1282.59375 4403.464844 -1262.542969 4396.601562 -1275.488281 C 4504.25 -1294.664062 4537.492188 -1320.359375 4628.554688 -1336.816406 C 4641.617188 -1346.714844 4643.855469 -1360.871094 4671.578125 -1364.996094 C 4653.832031 -1347.929688 4679.902344 -1348.398438 4679.308594 -1328.136719 C 4721.082031 -1330.523438 4729.828125 -1345.886719 4751.753906 -1356.113281 C 4808.78125 -1339.453125 4854.210938 -1359.8125 4911.261719 -1389.464844 C 5249.28125 -1395.308594 5655.0625 -1531.808594 6025.601562 -1583.964844 C 5943.320312 -1535.734375 5805.742188 -1539.917969 5733.152344 -1484.292969 C 5752.628906 -1471.601562 5824.660156 -1511.433594 5814.671875 -1469.242188 C 5855.585938 -1473.84375 5848.691406 -1497.269531 5885.890625 -1503.304688 C 5899.570312 -1497.753906 5902.625 -1483.105469 5892.296875 -1472.511719 C 5965.617188 -1502.84375 6107.667969 -1528.53125 6206.917969 -1512.582031 C 6178.820312 -1506.71875 6150.71875 -1500.855469 6122.421875 -1494.953125 C 6320.667969 -1519.488281 6629.378906 -1544.558594 6854.976562 -1596.71875 C 6881.761719 -1569.402344 6894.972656 -1603.835938 6971.644531 -1602.03125 Z M 195.996094 -346.398438 C 241.832031 -359.050781 292.488281 -361.667969 257.332031 -333.617188 C 295.992188 -339.113281 302.535156 -357.148438 328.453125 -367.660156 C 288.71875 -359.765625 303.308594 -377.03125 313.933594 -390.277344 C 282.25 -360.4375 193.410156 -388.132812 195.996094 -346.398438 Z M 4752.875 -1305.152344 C 4740.839844 -1304.078125 4731.707031 -1310.753906 4735.359375 -1295.1875 C 4783.234375 -1305.964844 4827.910156 -1320.773438 4857.3125 -1320.667969 C 4849.15625 -1346.230469 4771.53125 -1325.933594 4752.875 -1305.152344 Z M 2192.4375 -629.050781 C 2187.996094 -604.691406 2247.59375 -626.863281 2239.375 -638.8125 C 2215.921875 -634.609375 2207.96875 -644.222656 2192.4375 -629.050781 Z M 2260.683594 -630.433594 C 2291.371094 -640.972656 2349.457031 -640.722656 2362.570312 -658.105469 C 2311.878906 -651.015625 2287.507812 -663.761719 2260.683594 -630.433594 Z M 922.308594 -55.683594 C 952.867188 -42.625 1001.3125 -76.359375 1010.621094 -54.871094 C 1038.597656 -60.296875 1054.5 -82.914062 1075.050781 -74.695312 C 1073.304688 -82.855469 1071.65625 -91.039062 1069.890625 -99.300781 C 1024.636719 -83.234375 959.652344 -74.933594 922.308594 -55.683594 Z M 5381.140625 -641.164062 C 5408.015625 -653.117188 5448.367188 -659.992188 5451.015625 -681.394531 C 5414.339844 -673.285156 5367.652344 -668.976562 5381.140625 -641.164062 Z M 5596.445312 -641.308594 C 5724.011719 -679.652344 5536.59375 -647.746094 5521.429688 -625.589844 C 5552.378906 -633.269531 5577.347656 -635.597656 5596.445312 -641.308594 Z M -2839.816406 1474.46875 C -2831.429688 1477.972656 -2781.117188 1468.984375 -2786.191406 1450.488281 C -2810.976562 1455.789062 -2842.074219 1458.621094 -2839.816406 1474.46875 Z M 29.640625 1246.796875 C 37.011719 1221.535156 -31.078125 1233.996094 -38.585938 1248.277344 C -2.992188 1234.78125 -10.378906 1264.613281 29.640625 1246.796875 Z M 179.667969 1215.351562 C 265.335938 1209.21875 332.792969 1184.324219 434.179688 1168.589844 C 381.042969 1170.25 226.914062 1181.339844 179.667969 1215.351562 Z M 668.742188 1119.714844 C 653.875 1122.1875 636.4375 1127.359375 638.054688 1113.222656 C 583.8125 1137.742188 494.589844 1141.164062 450.445312 1152.4375 C 557.816406 1152.007812 607.8125 1146.617188 668.742188 1119.714844 Z M -310.992188 1350.039062 C -372.84375 1372.871094 -468.148438 1365.164062 -487.894531 1393.433594 C -374.421875 1387.726562 -129.628906 1345.304688 -9.566406 1293.414062 C -110.113281 1307.113281 -173.8125 1304.777344 -265.300781 1334.09375 C -187.859375 1341.761719 -332.125 1339.445312 -332.203125 1341.640625 C -321.464844 1340.828125 -316.265625 1345.492188 -310.992188 1350.039062 Z M 739.539062 1130.484375 C 761.472656 1125.96875 783.183594 1121.390625 805.09375 1116.769531 C 803.90625 1091.261719 739.386719 1119.925781 739.539062 1130.484375 Z M 18.632812 1287.53125 C 12.925781 1289.097656 7.777344 1290.859375 10.496094 1295.605469 C 52.308594 1290.304688 178.601562 1256.476562 74.828125 1275.804688 C 52.578125 1266.371094 45.640625 1287.597656 26.664062 1279.476562 C 25.304688 1275.804688 23.703125 1272.496094 15.941406 1275.199219 C 16.882812 1279.371094 17.707031 1283.460938 18.632812 1287.53125 Z M -508.261719 1436.15625 C -515.25 1450.4375 -540.292969 1457.554688 -550.039062 1470.523438 C -343.660156 1438.949219 3.589844 1360.332031 237.75 1305.828125 C 22.539062 1314.675781 -257.265625 1407.542969 -508.261719 1436.15625 Z M 6287.585938 323.683594 C 6391.925781 343.28125 6534.914062 329.449219 6654.203125 298.484375 C 6529.96875 317.777344 6382.511719 284.644531 6287.585938 323.683594 Z M 5887.703125 471.457031 C 5921.652344 483.832031 6000.59375 463.890625 6028.394531 442.097656 C 6028.730469 456.671875 6035.429688 464.667969 6052.273438 462.730469 C 6065.886719 446.804688 6042.78125 452.179688 6056.472656 436.136719 C 5999.625 422.449219 5947.058594 446.011719 5887.703125 471.457031 Z M 5720.160156 512.863281 C 5757.316406 502.996094 5774.476562 512.9375 5815.257812 499.429688 C 5805.738281 468.640625 5718.1875 499.96875 5720.160156 512.863281 Z M 6547.710938 397.683594 C 6579.390625 396.707031 6607.007812 390.007812 6661.53125 380.277344 C 6654.828125 352.140625 6578.078125 386.070312 6547.710938 397.683594 Z M -1762.835938 2365.332031 C -1783.957031 2380.585938 -1856.265625 2372.609375 -1883.542969 2397 C -1858.851562 2411.339844 -1772.148438 2390.253906 -1762.835938 2365.332031 Z M 2329.949219 1574.226562 C 2296.488281 1585.945312 2274.691406 1569.984375 2254.933594 1589.949219 C 2295.460938 1610.761719 2371.941406 1586.332031 2436.878906 1571.082031 C 2541.683594 1546.558594 2638.132812 1510.949219 2745.113281 1500.320312 C 2638.441406 1486.695312 2406.832031 1552.835938 2329.949219 1574.226562 Z M 2893.898438 1462.6875 C 2936.714844 1461.855469 3032.316406 1435.449219 3088.394531 1409.210938 C 3020.929688 1430.472656 2896.164062 1423.917969 2893.898438 1462.6875 Z M 3463.507812 1330.796875 C 3467.019531 1358.542969 3371.308594 1347.28125 3374.914062 1375.003906 C 3423.882812 1375.324219 3455.699219 1360.09375 3495.644531 1343.433594 C 3503.484375 1358.675781 3507.285156 1362.585938 3531.453125 1374.332031 C 3715.9375 1280.921875 3922.777344 1328.996094 4099.738281 1236.375 C 3887.308594 1251.308594 3677.1875 1324.648438 3463.507812 1330.796875 Z M 1742.824219 1716.078125 C 1695.046875 1725.800781 1629.097656 1711.765625 1614.203125 1755.882812 C 1785.21875 1731.738281 1952.207031 1693.246094 2115.488281 1625.492188 C 1993.335938 1649.457031 1860.902344 1692 1742.824219 1716.078125 Z M 1742.824219 1716.078125 "/>
</g>
</g>
</g>
<g clip-path="url(#clip5)" clip-rule="nonzero">
<g clip-path="url(#clip6)" clip-rule="nonzero">
<g clip-path="url(#clip7)" clip-rule="nonzero">
<path style=" stroke:none;fill-rule:evenodd;fill:rgb(90.979004%,23.529053%,61.569214%);fill-opacity:1;" d="M 3287.09375 1165.628906 C 3263.601562 1162.765625 3233.921875 1166.273438 3203.855469 1170.242188 C 3205.507812 1168.292969 3205.761719 1165.785156 3204.898438 1162.890625 C 3188.214844 1165.972656 3182.527344 1173.160156 3164.3125 1175.683594 C 3169.089844 1170.917969 3163.972656 1169.011719 3155.394531 1172.363281 C 3159.550781 1166.863281 3176.203125 1166.011719 3176.84375 1171.03125 C 3180.011719 1169.847656 3178.714844 1167.074219 3176.070312 1167.652344 C 3218.742188 1160.6875 3260.667969 1144.136719 3298.367188 1143.425781 C 3273.949219 1133.4375 3205.1875 1148.835938 3171.46875 1147.316406 C 3172.613281 1142.941406 3187.089844 1142.046875 3185.175781 1147.773438 C 3188.207031 1145.292969 3194.429688 1143.957031 3194.355469 1140.335938 C 3223.664062 1139.734375 3256.058594 1134.824219 3283.789062 1127.183594 C 3318.484375 1132.351562 3362.703125 1127.703125 3385.707031 1145.039062 C 3389.886719 1158.574219 3387.8125 1166.730469 3393.027344 1177.242188 C 3387.925781 1193.417969 3381.859375 1209.257812 3367.871094 1222.132812 C 3382.210938 1233.613281 3391.121094 1242.679688 3394.839844 1257.007812 C 3392.066406 1260.527344 3377.144531 1267.433594 3389.015625 1267.253906 C 3384.121094 1270.578125 3379.042969 1273.855469 3375.042969 1277.558594 C 3377.332031 1281.699219 3390.605469 1280.03125 3385.097656 1285.941406 C 3376.441406 1289.339844 3374.601562 1285.675781 3366.625 1288.347656 C 3370.789062 1297.875 3390.710938 1297.863281 3398.644531 1309.59375 C 3408.417969 1324.035156 3400.800781 1345.582031 3405.78125 1364.996094 C 3380.480469 1370.71875 3394.953125 1393.707031 3359.066406 1398.753906 C 3388.105469 1403.777344 3429.453125 1406.417969 3462.710938 1400.164062 C 3470.160156 1405.742188 3482.683594 1422.089844 3469.628906 1430.664062 C 3473.332031 1433.082031 3477.675781 1434.871094 3481.902344 1436.800781 C 3477.40625 1442.199219 3455.515625 1442.816406 3465.71875 1449.378906 C 3440.785156 1459.261719 3406 1460.515625 3390.875 1478.832031 C 3392.128906 1483.113281 3401.140625 1479.378906 3404.957031 1480.992188 C 3406.730469 1485.132812 3402.347656 1491.976562 3405.460938 1495.132812 C 3420.757812 1495.46875 3414.1875 1499.941406 3427.6875 1497.210938 C 3425.527344 1502.617188 3421.386719 1507.273438 3411.503906 1509.789062 C 3420.382812 1512.425781 3434.902344 1509.210938 3440.035156 1515.789062 C 3412.292969 1530.355469 3398.207031 1527.644531 3365.835938 1536.21875 C 3414.566406 1534.527344 3459.066406 1537.230469 3500.589844 1543.035156 C 3502.710938 1550.332031 3504.832031 1557.652344 3498.488281 1557.773438 C 3504.550781 1562.011719 3507.539062 1557.230469 3511.027344 1553.148438 C 3517.0625 1567.144531 3520.484375 1575.765625 3536.445312 1581.238281 C 3533.980469 1594.441406 3514.890625 1593.636719 3499.980469 1600.195312 C 3504.078125 1607.835938 3509.203125 1614.386719 3521.910156 1613.039062 C 3517.1875 1630.285156 3472.675781 1637.800781 3458.9375 1646.929688 C 3467.101562 1655.753906 3481.460938 1643.804688 3495.132812 1638.703125 C 3493.101562 1646.386719 3501.964844 1642.769531 3502.613281 1647.703125 C 3456.910156 1659.515625 3455.835938 1674.320312 3406.660156 1680.171875 C 3415.089844 1724.648438 3386.195312 1755.246094 3375.097656 1792.46875 C 3351.691406 1793.273438 3343.429688 1802.933594 3333.445312 1812.621094 C 3333.328125 1817.609375 3347.210938 1808.074219 3347.121094 1813.054688 C 3328.203125 1823.433594 3299.554688 1828.738281 3271.109375 1837.457031 C 3244.554688 1845.617188 3221.738281 1850.679688 3202.765625 1847.660156 C 3073.152344 1893.738281 2965.761719 1903.359375 2827.214844 1941.824219 C 2823.714844 1936.910156 2835.222656 1937.585938 2833.417969 1933.308594 C 2790.269531 1942.570312 2717.519531 1971.855469 2673.507812 1971.382812 C 2665.523438 1974.808594 2668.640625 1966.679688 2664.214844 1966.355469 C 2631.703125 1974.550781 2604.636719 1991.941406 2581.492188 1985.132812 C 2534.355469 1992.757812 2485.773438 2018.011719 2449.613281 2015.09375 C 2314.042969 2047.28125 2205.742188 2077.46875 2088.707031 2089.925781 C 2022.933594 2101.0625 1970.804688 2117.226562 1904.363281 2128.222656 C 1911.800781 2118.082031 1933.453125 2113.21875 1951.183594 2106.90625 C 1926.636719 2109.347656 1887.507812 2117.351562 1855.152344 2126.929688 C 1746.96875 2158.964844 1631.855469 2181.5 1518.679688 2201.5625 C 1512.652344 2198.789062 1518.894531 2199.523438 1520.117188 2195.882812 C 1496.859375 2195.273438 1475.390625 2207.941406 1456.238281 2213.960938 C 1450.671875 2211.835938 1454.972656 2209.765625 1454.320312 2205.46875 C 1431.699219 2208.148438 1439.816406 2214.011719 1427.410156 2218.695312 C 1415.710938 2222.933594 1429.992188 2213.515625 1421.097656 2214.773438 C 1415.40625 2215.242188 1416.71875 2218.328125 1417.082031 2221.046875 C 1386.890625 2225.21875 1362.816406 2228.910156 1328.800781 2239.316406 C 1318.320312 2242.535156 1329.84375 2234.613281 1322.09375 2233.71875 C 1278.414062 2242.664062 1218.796875 2266.09375 1170.328125 2271.734375 C 1147.339844 2274.441406 1133.636719 2280.070312 1108.269531 2285.867188 C 1086.574219 2290.796875 1063.351562 2286.542969 1038.375 2289.253906 C 1017.847656 2291.503906 989.503906 2305.019531 958.230469 2307.4375 C 958.242188 2304.867188 965.792969 2305.113281 965.179688 2302.308594 C 877.765625 2324.679688 769.75 2348.804688 688.269531 2375.878906 C 586.21875 2391.453125 473.410156 2433.441406 382.160156 2452.503906 C 383.800781 2449.464844 387.835938 2447.367188 394.320312 2446.175781 C 303.785156 2458.90625 166.78125 2487.714844 54.125 2516.316406 C 43.578125 2519.640625 44.988281 2527.378906 29.820312 2528.945312 C 25.082031 2540.195312 4.40625 2545.453125 -8.476562 2551.914062 C -10.738281 2553.042969 -17.484375 2559.222656 -20.269531 2559.921875 C -61.230469 2570.75 -55.785156 2536.675781 -82.363281 2525.917969 C -93.484375 2533.578125 -105.710938 2538.308594 -118.558594 2534.144531 C -120.0625 2523.222656 -100.917969 2520.0625 -96.546875 2511.34375 C -100.398438 2509.679688 -112.292969 2509.085938 -112.035156 2514.859375 C -118.671875 2512.738281 -119.75 2507.289062 -114.726562 2502.988281 C -124.101562 2504.148438 -119.699219 2510.421875 -129.074219 2511.585938 C -130.980469 2508.28125 -128.328125 2506.691406 -128.011719 2504.199219 C -136.496094 2505.078125 -135.304688 2509.203125 -140.972656 2507.15625 C -143.984375 2496.710938 -144.695312 2487.148438 -135.992188 2481.085938 C -190.4375 2481.691406 -238.679688 2463.394531 -286.925781 2451.246094 C -288.074219 2440.480469 -275.535156 2434.816406 -276.78125 2424.015625 C -246.433594 2410.808594 -226.707031 2403.222656 -188.636719 2393.285156 C -183.210938 2388.578125 -195.5 2384.871094 -189.113281 2379.140625 C -177.871094 2378.347656 -162.765625 2374.515625 -157.015625 2364.71875 C -167.066406 2364.382812 -171.320312 2367.335938 -183.628906 2367.207031 C -182.792969 2362.871094 -176.0625 2360.703125 -175.226562 2356.367188 C -193.804688 2350.257812 -170.9375 2329.378906 -183.316406 2320.785156 C -179.777344 2315.882812 -168.125 2320.25 -159.652344 2317.210938 C -174.414062 2314.96875 -146.421875 2311.136719 -143.097656 2306.3125 C -144.972656 2303.03125 -163.882812 2314.878906 -159.359375 2306.445312 C -184.6875 2314.796875 -177.894531 2309.355469 -198.136719 2315.265625 C -200.660156 2288.765625 -163.019531 2270.035156 -123.585938 2248.4375 C -130.632812 2244.585938 -142.578125 2236.910156 -138.945312 2228.757812 C -143.179688 2226.28125 -152.804688 2234.855469 -158.859375 2236.816406 C -159.972656 2231.753906 -153.449219 2229.542969 -153.425781 2224.925781 C -160.457031 2222.167969 -157.675781 2228.539062 -165.96875 2229.519531 C -160.539062 2217.859375 -145.777344 2217.996094 -135.035156 2210.042969 C -148.222656 2206.1875 -159.164062 2215.046875 -173.8125 2218.867188 C -173.300781 2215.929688 -166.035156 2215.546875 -170.164062 2210.914062 C -177.589844 2212.28125 -173.929688 2217.796875 -184.914062 2217.8125 C -187.371094 2212.78125 -177.847656 2212.164062 -182.035156 2206.476562 C -194.941406 2211.386719 -210.871094 2216.582031 -223.027344 2217.546875 C -224.449219 2211.339844 -215.441406 2209.015625 -212.40625 2204.457031 C -221.59375 2203.585938 -226.625 2209.421875 -237.851562 2212 C -240.5625 2204.777344 -242.335938 2196.945312 -223.613281 2190.964844 C -225.328125 2187.214844 -224.65625 2184.355469 -222.953125 2181.875 C -234.863281 2179.5 -238.980469 2183.460938 -262.503906 2187.292969 C -268.296875 2180.601562 -254.691406 2171.644531 -258.988281 2166.90625 C -268.828125 2156.082031 -282.757812 2161.589844 -302.746094 2166.148438 C -295.945312 2157.472656 -300.789062 2153.921875 -293.671875 2146.273438 C -307.71875 2144.015625 -299.546875 2135.648438 -301.257812 2124.832031 C -296.664062 2123.5625 -295.335938 2125.667969 -290.53125 2124.179688 C -288.628906 2104.726562 -241.726562 2102.054688 -240.195312 2082.476562 C -252.90625 2081.71875 -249.078125 2063.800781 -261.09375 2062.253906 C -251.523438 2036.878906 -273.292969 1999.796875 -226.230469 1988.40625 C -230.582031 1981.71875 -239.78125 1980.128906 -254.390625 1984.113281 C -253.734375 1975.804688 -261.855469 1976.492188 -271.800781 1979.132812 C -269.570312 1969.585938 -268.136719 1968.636719 -280.046875 1966.777344 C -271.578125 1949.257812 -277.933594 1934.875 -270.921875 1911.242188 C -162.617188 1893.6875 -14.246094 1860.828125 81.203125 1845.519531 C 83.695312 1844.914062 82.726562 1842.992188 83.011719 1841.546875 C 105.59375 1846.429688 136.109375 1833.996094 155.007812 1823.417969 C 153.960938 1825.089844 152.949219 1826.785156 153.601562 1829.09375 C 165.148438 1827.714844 167.5 1822.929688 179.046875 1821.550781 C 202.113281 1820.242188 282.304688 1791.488281 335.203125 1778.964844 C 393.246094 1765.195312 452.164062 1743.964844 479.109375 1730.238281 C 491.570312 1742.738281 519.964844 1730.625 550.835938 1722.84375 C 558.554688 1720.429688 556.617188 1728.035156 562.707031 1727.277344 C 576.921875 1716.226562 625.605469 1717.753906 641.707031 1704.007812 C 642.277344 1699.242188 639.292969 1698.136719 632.8125 1700.652344 C 649.84375 1690.628906 674.316406 1692.183594 694.082031 1683.175781 C 692 1681.84375 687.738281 1682.777344 687.769531 1679.253906 C 723.589844 1673.386719 762.421875 1670.726562 787.261719 1674.480469 C 799.09375 1668.222656 808.03125 1671.769531 819.066406 1670.820312 C 850.730469 1668.085938 895.503906 1650.074219 932.050781 1641.597656 C 1044.664062 1615.429688 1157.644531 1600.398438 1261.179688 1570.421875 C 1263.257812 1571.753906 1267.523438 1570.816406 1267.488281 1574.34375 C 1349.203125 1555.039062 1413.195312 1534.597656 1493.828125 1517.605469 C 1493.617188 1512.949219 1487.457031 1514.445312 1482.328125 1514.851562 C 1502.53125 1508.515625 1523.3125 1510.589844 1541.121094 1510.40625 C 1556.449219 1494.582031 1573.332031 1505.042969 1598.375 1499.207031 C 1600.679688 1502.621094 1594.015625 1502.730469 1594.359375 1505.480469 C 1679.898438 1492.835938 1749.421875 1449.894531 1838.792969 1444.601562 C 1841.480469 1440.953125 1846.269531 1438.085938 1853.171875 1436.023438 C 1853.128906 1447.398438 1828.460938 1449.550781 1817.074219 1456.660156 C 1856.828125 1448.230469 1903.503906 1432.167969 1952.65625 1431.222656 C 1965.535156 1411.726562 2014.554688 1411.097656 2051.160156 1398.167969 C 2052.507812 1400.753906 2049.386719 1401.640625 2049.722656 1403.847656 C 2061.902344 1401.003906 2070.019531 1402.394531 2081.53125 1400.1875 C 2080.425781 1394.371094 2070.816406 1397.347656 2062.289062 1399.214844 C 2081.101562 1386.261719 2113.269531 1394.378906 2119.425781 1375.519531 C 2133.890625 1374.425781 2143.296875 1372.363281 2149.6875 1365.078125 C 2151.03125 1367.664062 2147.910156 1368.550781 2148.257812 1370.785156 C 2222.007812 1364.472656 2303.34375 1345.421875 2396.15625 1325.183594 C 2393.5 1318.871094 2377.671875 1326.234375 2371.351562 1323.699219 C 2457.4375 1295.933594 2562.136719 1299.277344 2647.964844 1260.867188 C 2633.957031 1258.402344 2605.105469 1265.796875 2594.710938 1265.855469 C 2589.132812 1266.070312 2578.226562 1271.808594 2576.265625 1268.257812 C 2605.953125 1262.4375 2615.027344 1255.167969 2640.140625 1250.179688 C 2643.707031 1247.378906 2644.257812 1243.449219 2651.90625 1242.175781 C 2647.082031 1246.984375 2654.289062 1246.730469 2654.222656 1252.339844 C 2665.769531 1251.480469 2668.117188 1247.1875 2674.132812 1244.253906 C 2689.988281 1248.59375 2702.460938 1242.742188 2718.101562 1234.265625 C 2811.585938 1231.039062 2923.191406 1191.328125 3025.453125 1175.132812 C 3002.921875 1188.871094 2964.839844 1188.367188 2945.023438 1204.109375 C 2950.472656 1207.527344 2970.210938 1196.160156 2967.648438 1207.886719 C 2978.945312 1206.417969 2976.925781 1199.96875 2987.1875 1198.121094 C 2991 1199.589844 2991.914062 1203.632812 2989.109375 1206.613281 C 3009.246094 1197.867188 3048.421875 1190.082031 3075.957031 1194.023438 C 3068.210938 1195.78125 3060.464844 1197.539062 3052.667969 1199.308594 C 3107.394531 1191.574219 3192.679688 1183.164062 3254.839844 1167.65625 C 3262.382812 1175.089844 3265.871094 1165.496094 3287.09375 1165.628906 Z M 1418.617188 1545.382812 C 1431.234375 1541.660156 1445.238281 1540.695312 1435.648438 1548.625 C 1446.316406 1546.921875 1448.039062 1541.898438 1455.160156 1538.867188 C 1444.203125 1541.238281 1448.15625 1536.390625 1451.03125 1532.675781 C 1442.410156 1541.085938 1417.699219 1533.84375 1418.617188 1545.382812 Z M 2674.6875 1258.351562 C 2671.363281 1258.707031 2668.804688 1256.902344 2669.890625 1261.191406 C 2683.082031 1257.980469 2695.371094 1253.671875 2703.503906 1253.5625 C 2701.125 1246.523438 2679.75 1252.511719 2674.6875 1258.351562 Z M 1969.582031 1457.652344 C 1968.46875 1464.417969 1984.851562 1457.996094 1982.519531 1454.730469 C 1976.050781 1456.003906 1973.804688 1453.382812 1969.582031 1457.652344 Z M 1988.453125 1456.945312 C 1996.894531 1453.886719 2012.964844 1453.675781 2016.507812 1448.804688 C 2002.519531 1451.007812 1995.714844 1447.59375 1988.453125 1456.945312 Z M 1620.949219 1622.386719 C 1629.46875 1625.855469 1642.707031 1616.285156 1645.386719 1622.1875 C 1653.101562 1620.554688 1657.390625 1614.21875 1663.117188 1616.398438 C 1662.59375 1614.144531 1662.097656 1611.890625 1661.570312 1609.609375 C 1649.128906 1614.273438 1631.191406 1616.878906 1620.949219 1622.386719 Z M 2851.691406 1439.132812 C 2859.066406 1435.695312 2870.199219 1433.601562 2870.828125 1427.664062 C 2860.71875 1430.082031 2847.824219 1431.5 2851.691406 1439.132812 Z M 2911.253906 1438.066406 C 2946.363281 1426.847656 2894.664062 1436.570312 2890.578125 1442.777344 C 2899.101562 1440.5 2906 1439.738281 2911.253906 1438.066406 Z M 587.496094 2063.777344 C 589.835938 2064.703125 603.710938 2061.980469 602.21875 2056.882812 C 595.386719 2058.46875 586.796875 2059.398438 587.496094 2063.777344 Z M 1380.25 1987.113281 C 1382.167969 1980.085938 1363.390625 1983.859375 1361.382812 1987.847656 C 1371.164062 1983.941406 1369.265625 1992.234375 1380.25 1987.113281 Z M 1421.605469 1977.695312 C 1445.277344 1975.589844 1463.820312 1968.378906 1491.792969 1963.542969 C 1477.097656 1964.253906 1434.511719 1968.058594 1421.605469 1977.695312 Z M 1556.449219 1948.898438 C 1552.347656 1949.65625 1547.546875 1951.167969 1547.929688 1947.25 C 1533.039062 1954.292969 1508.371094 1955.664062 1496.214844 1958.996094 C 1525.917969 1958.367188 1539.722656 1956.636719 1556.449219 1948.898438 Z M 1286.507812 2017.308594 C 1269.507812 2023.921875 1243.105469 2022.242188 1237.777344 2030.160156 C 1269.140625 2028.039062 1336.660156 2015.132812 1369.628906 2000.203125 C 1341.875 2004.472656 1324.242188 2004.128906 1299.074219 2012.675781 C 1320.535156 2014.429688 1280.613281 2014.476562 1280.601562 2015.082031 C 1283.566406 2014.808594 1285.027344 2016.074219 1286.507812 2017.308594 Z M 1576.085938 1951.542969 C 1582.132812 1950.191406 1588.117188 1948.820312 1594.15625 1947.4375 C 1593.707031 1940.382812 1575.996094 1948.621094 1576.085938 1951.542969 Z M 1377.398438 1998.4375 C 1375.828125 1998.898438 1374.414062 1999.410156 1375.1875 2000.710938 C 1386.730469 1999.046875 1421.507812 1989.082031 1392.890625 1994.925781 C 1386.691406 1992.421875 1384.871094 1998.328125 1379.585938 1996.171875 C 1379.191406 1995.164062 1378.730469 1994.253906 1376.597656 1995.039062 C 1376.878906 1996.1875 1377.125 1997.316406 1377.398438 1998.4375 Z M 1232.347656 2042.078125 C 1230.480469 2046.066406 1223.589844 2048.15625 1220.953125 2051.789062 C 1277.898438 2042.070312 1373.589844 2018.660156 1438.109375 2002.460938 C 1378.609375 2005.933594 1301.648438 2032.964844 1232.347656 2042.078125 Z M 3107.097656 1701.855469 C 3136.0625 1706.78125 3175.550781 1702.273438 3208.40625 1693.136719 C 3174.128906 1699.066406 3133.175781 1690.597656 3107.097656 1701.855469 Z M 2997.179688 1744.65625 C 3006.632812 1747.917969 3028.375 1742.027344 3035.960938 1735.863281 C 3036.125 1739.894531 3038.015625 1742.074219 3042.667969 1741.457031 C 3046.359375 1736.984375 3039.992188 1738.585938 3043.703125 1734.078125 C 3027.910156 1730.5625 3013.480469 1737.332031 2997.179688 1744.65625 Z M 2951.027344 1756.914062 C 2961.261719 1754.003906 2966.054688 1756.675781 2977.273438 1752.742188 C 2974.492188 1744.265625 2950.421875 1753.355469 2951.027344 1756.914062 Z M 3179.421875 1721.097656 C 3188.179688 1720.679688 3195.789062 1718.691406 3210.824219 1715.738281 C 3208.835938 1707.984375 3187.765625 1717.738281 3179.421875 1721.097656 Z M 889.730469 2305.210938 C 883.960938 2309.535156 863.917969 2307.671875 856.488281 2314.550781 C 863.386719 2318.402344 887.273438 2312.152344 889.730469 2305.210938 Z M 2018.214844 2066.789062 C 2009.011719 2070.191406 2002.90625 2065.878906 1997.535156 2071.5 C 2008.847656 2077.066406 2029.890625 2069.941406 2047.78125 2065.410156 C 2076.65625 2058.125 2103.171875 2047.8125 2132.714844 2044.359375 C 2103.140625 2041.097656 2039.382812 2060.503906 2018.214844 2066.789062 Z M 2173.695312 2033.238281 C 2185.539062 2032.804688 2211.859375 2025.039062 2227.246094 2017.511719 C 2208.6875 2023.71875 2174.136719 2022.496094 2173.695312 2033.238281 Z M 2330.648438 1994.023438 C 2331.75 2001.6875 2305.21875 1999.023438 2306.351562 2006.679688 C 2319.898438 2006.535156 2328.628906 2002.167969 2339.597656 1997.371094 C 2341.839844 2001.550781 2342.910156 2002.613281 2349.652344 2005.75 C 2400.242188 1979.019531 2457.699219 1991.34375 2506.210938 1964.867188 C 2447.511719 1970.007812 2389.734375 1991.304688 2330.648438 1994.023438 Z M 1856.464844 2108.84375 C 1843.292969 2111.761719 1824.980469 2108.191406 1821.070312 2120.472656 C 1868.269531 2112.976562 1914.28125 2101.527344 1959.128906 2082 C 1925.449219 2089.214844 1889.015625 2101.617188 1856.464844 2108.84375 Z M 1856.464844 2108.84375 "/>
</g>
</g>
</g>
<g clip-path="url(#clip8)" clip-rule="nonzero">
<g clip-path="url(#clip9)" clip-rule="evenodd">
<g clip-path="url(#clip10)" clip-rule="evenodd">
<path style=" stroke:none;fill-rule:evenodd;fill:rgb(90.979004%,23.529053%,61.569214%);fill-opacity:1;" d="M 7345.363281 -629.914062 C 7321.871094 -632.78125 7292.195312 -629.273438 7262.128906 -625.300781 C 7263.777344 -627.25 7264.035156 -629.757812 7263.167969 -632.65625 C 7246.488281 -629.574219 7240.800781 -622.382812 7222.582031 -619.859375 C 7227.363281 -624.628906 7222.246094 -626.535156 7213.667969 -623.183594 C 7217.824219 -628.679688 7234.472656 -629.535156 7235.113281 -624.511719 C 7238.285156 -625.699219 7236.984375 -628.46875 7234.34375 -627.890625 C 7277.015625 -634.855469 7318.941406 -651.40625 7356.640625 -652.117188 C 7332.21875 -662.105469 7263.460938 -646.710938 7229.738281 -648.226562 C 7230.882812 -652.601562 7245.363281 -653.5 7243.449219 -647.773438 C 7246.480469 -650.253906 7252.703125 -651.589844 7252.628906 -655.207031 C 7281.933594 -655.808594 7314.332031 -660.722656 7342.0625 -668.363281 C 7376.757812 -663.191406 7420.972656 -667.84375 7443.980469 -650.503906 C 7448.160156 -636.96875 7446.085938 -628.8125 7451.300781 -618.304688 C 7446.199219 -602.128906 7440.128906 -586.285156 7426.144531 -573.414062 C 7440.484375 -561.933594 7449.390625 -552.867188 7453.109375 -538.539062 C 7450.335938 -535.015625 7435.417969 -528.109375 7447.285156 -528.289062 C 7442.390625 -524.96875 7437.316406 -521.691406 7433.3125 -517.984375 C 7435.605469 -513.84375 7448.875 -515.515625 7443.367188 -509.605469 C 7434.714844 -506.207031 7432.875 -509.871094 7424.898438 -507.199219 C 7429.0625 -497.667969 7448.984375 -497.683594 7456.917969 -485.953125 C 7466.6875 -471.507812 7459.074219 -449.964844 7464.054688 -430.546875 C 7438.753906 -424.824219 7453.222656 -401.835938 7417.339844 -396.792969 C 7446.378906 -391.769531 7487.726562 -389.125 7520.980469 -395.378906 C 7528.433594 -389.804688 7540.957031 -373.453125 7527.902344 -364.878906 C 7531.605469 -362.460938 7535.945312 -360.671875 7540.175781 -358.746094 C 7535.679688 -353.34375 7513.789062 -352.726562 7523.992188 -346.167969 C 7499.058594 -336.285156 7464.273438 -335.03125 7449.144531 -316.714844 C 7450.402344 -312.429688 7459.414062 -316.167969 7463.226562 -314.550781 C 7465 -310.410156 7460.621094 -303.566406 7463.734375 -300.414062 C 7479.03125 -300.074219 7472.457031 -295.605469 7485.957031 -298.335938 C 7483.800781 -292.929688 7479.660156 -288.273438 7469.773438 -285.757812 C 7478.65625 -283.117188 7493.175781 -286.332031 7498.308594 -279.757812 C 7470.566406 -265.191406 7456.480469 -267.898438 7424.105469 -259.328125 C 7472.835938 -261.015625 7517.339844 -258.316406 7558.863281 -252.507812 C 7560.980469 -245.214844 7563.105469 -237.890625 7556.761719 -237.769531 C 7562.824219 -233.53125 7565.808594 -238.3125 7569.296875 -242.394531 C 7575.335938 -228.402344 7578.757812 -219.777344 7594.71875 -214.308594 C 7592.25 -201.101562 7573.160156 -201.90625 7558.253906 -195.347656 C 7562.347656 -187.707031 7567.476562 -181.160156 7580.183594 -182.503906 C 7575.460938 -165.257812 7530.949219 -157.746094 7517.210938 -148.617188 C 7525.371094 -139.792969 7539.734375 -151.738281 7553.40625 -156.84375 C 7551.371094 -149.15625 7560.238281 -152.773438 7560.886719 -147.839844 C 7515.183594 -136.027344 7514.105469 -121.226562 7464.933594 -115.371094 C 7473.363281 -70.894531 7444.464844 -40.300781 7433.371094 -3.078125 C 7409.964844 -2.269531 7401.703125 7.386719 7391.71875 17.078125 C 7391.601562 22.0625 7405.480469 12.53125 7405.390625 17.511719 C 7386.476562 27.890625 7357.828125 33.191406 7329.378906 41.914062 C 7302.828125 50.074219 7280.007812 55.136719 7261.039062 52.113281 C 7131.425781 98.195312 7024.035156 107.816406 6885.484375 146.28125 C 6881.984375 141.363281 6893.492188 142.042969 6891.691406 137.765625 C 6848.542969 147.027344 6775.792969 176.308594 6731.777344 175.839844 C 6723.792969 179.261719 6726.914062 171.136719 6722.488281 170.808594 C 6689.976562 179.007812 6662.910156 196.394531 6639.765625 189.585938 C 6592.625 197.214844 6544.046875 222.464844 6507.886719 219.550781 C 6372.316406 251.734375 6264.011719 281.921875 6146.976562 294.378906 C 6081.203125 305.515625 6029.074219 321.679688 5962.636719 332.675781 C 5970.070312 322.535156 5991.722656 317.671875 6009.457031 311.359375 C 5984.90625 313.800781 5945.78125 321.808594 5913.425781 331.382812 C 5805.242188 363.417969 5690.128906 385.953125 5576.953125 406.019531 C 5570.921875 403.242188 5577.167969 403.980469 5578.386719 400.335938 C 5555.128906 399.726562 5533.660156 412.398438 5514.511719 418.414062 C 5508.941406 416.289062 5513.246094 414.222656 5512.589844 409.921875 C 5489.96875 412.605469 5498.089844 418.46875 5485.679688 423.152344 C 5473.980469 427.390625 5488.261719 417.96875 5479.371094 419.226562 C 5473.679688 419.699219 5474.988281 422.785156 5475.355469 425.503906 C 5445.160156 429.671875 5421.089844 433.367188 5387.070312 443.769531 C 5376.589844 446.992188 5388.117188 439.070312 5380.367188 438.171875 C 5336.6875 447.117188 5277.070312 470.550781 5228.601562 476.191406 C 5205.609375 478.894531 5191.910156 484.527344 5166.539062 490.320312 C 5144.84375 495.253906 5121.625 491 5096.644531 493.707031 C 5076.121094 495.960938 5047.773438 509.476562 5016.503906 511.890625 C 5016.515625 509.320312 5024.066406 509.570312 5023.449219 506.761719 C 4936.039062 529.136719 4828.019531 553.257812 4746.539062 580.332031 C 4644.488281 595.90625 4531.683594 637.898438 4440.433594 656.960938 C 4442.070312 653.917969 4446.109375 651.820312 4452.59375 650.628906 C 4362.058594 663.363281 4225.054688 692.167969 4112.394531 720.773438 C 4101.851562 724.09375 4103.261719 731.832031 4088.09375 733.402344 C 4083.351562 744.652344 4062.679688 749.90625 4049.796875 756.367188 C 4047.535156 757.496094 4040.789062 763.679688 4038 764.378906 C 3997.042969 775.207031 4002.484375 741.128906 3975.90625 730.371094 C 3964.785156 738.03125 3952.5625 742.761719 3939.710938 738.597656 C 3938.210938 727.679688 3957.355469 724.519531 3961.726562 715.800781 C 3957.871094 714.136719 3945.980469 713.542969 3946.234375 719.3125 C 3939.601562 717.191406 3938.523438 711.746094 3943.546875 707.441406 C 3934.171875 708.605469 3938.574219 714.878906 3929.199219 716.039062 C 3927.292969 712.738281 3929.941406 711.148438 3930.261719 708.652344 C 3921.777344 709.535156 3922.96875 713.65625 3917.300781 711.613281 C 3914.289062 701.167969 3913.574219 691.601562 3922.277344 685.539062 C 3867.835938 686.144531 3819.59375 667.851562 3771.347656 655.703125 C 3770.195312 644.9375 3782.734375 639.273438 3781.492188 628.46875 C 3811.835938 615.265625 3831.566406 607.679688 3869.636719 597.742188 C 3875.0625 593.03125 3862.773438 589.324219 3869.15625 583.597656 C 3880.402344 582.804688 3895.503906 578.972656 3901.253906 569.171875 C 3891.207031 568.839844 3886.953125 571.789062 3874.644531 571.664062 C 3875.480469 567.328125 3882.210938 565.15625 3883.046875 560.820312 C 3864.464844 554.714844 3887.335938 533.832031 3874.957031 525.242188 C 3878.492188 520.339844 3890.148438 524.707031 3898.621094 521.664062 C 3883.855469 519.421875 3911.847656 515.589844 3915.171875 510.765625 C 3913.300781 507.484375 3894.390625 519.332031 3898.910156 510.898438 C 3873.585938 519.253906 3880.378906 513.8125 3860.136719 519.722656 C 3857.609375 493.21875 3895.25 474.492188 3934.683594 452.890625 C 3927.640625 449.042969 3915.691406 441.363281 3919.324219 433.210938 C 3915.09375 430.738281 3905.46875 439.308594 3899.410156 441.273438 C 3898.300781 436.207031 3904.824219 434 3904.847656 429.378906 C 3897.8125 426.625 3900.59375 432.996094 3892.304688 433.976562 C 3897.734375 422.3125 3912.496094 422.453125 3923.238281 414.5 C 3910.050781 410.640625 3899.105469 419.503906 3884.460938 423.320312 C 3884.96875 420.382812 3892.238281 420 3888.109375 415.367188 C 3880.679688 416.738281 3884.339844 422.25 3873.359375 422.265625 C 3870.902344 417.238281 3880.425781 416.621094 3876.238281 410.933594 C 3863.328125 415.839844 3847.402344 421.035156 3835.242188 422 C 3833.824219 415.792969 3842.828125 413.472656 3845.867188 408.910156 C 3836.679688 408.042969 3831.644531 413.878906 3820.417969 416.453125 C 3817.710938 409.230469 3815.933594 401.398438 3834.660156 395.417969 C 3832.945312 391.667969 3833.617188 388.8125 3835.320312 386.332031 C 3823.410156 383.953125 3819.292969 387.914062 3795.769531 391.746094 C 3789.976562 385.054688 3803.582031 376.101562 3799.285156 371.359375 C 3789.441406 360.539062 3775.515625 366.046875 3755.523438 370.601562 C 3762.328125 361.929688 3757.484375 358.375 3764.601562 350.726562 C 3750.554688 348.472656 3758.722656 340.101562 3757.015625 329.285156 C 3761.609375 328.019531 3762.9375 330.121094 3767.742188 328.636719 C 3769.644531 309.179688 3816.542969 306.507812 3818.074219 286.933594 C 3805.367188 286.171875 3809.191406 268.257812 3797.175781 266.710938 C 3806.746094 241.332031 3784.976562 204.253906 3832.042969 192.863281 C 3827.691406 186.171875 3818.492188 184.585938 3803.882812 188.566406 C 3804.539062 180.261719 3796.414062 180.945312 3786.472656 183.589844 C 3788.703125 174.042969 3790.136719 173.09375 3778.226562 171.234375 C 3786.695312 153.714844 3780.339844 139.328125 3787.351562 115.695312 C 3895.65625 98.144531 4044.027344 65.285156 4139.476562 49.972656 C 4141.964844 49.371094 4140.996094 47.449219 4141.285156 46 C 4163.863281 50.882812 4194.378906 38.453125 4213.28125 27.875 C 4212.234375 29.546875 4211.222656 31.238281 4211.871094 33.546875 C 4223.421875 32.167969 4225.773438 27.382812 4237.320312 26.003906 C 4260.386719 24.695312 4340.574219 -4.054688 4393.472656 -16.582031 C 4451.519531 -30.351562 4510.4375 -51.578125 4537.382812 -65.304688 C 4549.839844 -52.808594 4578.234375 -64.921875 4609.109375 -72.703125 C 4616.824219 -75.117188 4614.890625 -67.507812 4620.980469 -68.265625 C 4635.191406 -79.316406 4683.878906 -77.792969 4699.980469 -91.535156 C 4700.546875 -96.304688 4697.566406 -97.410156 4691.082031 -94.890625 C 4708.117188 -104.917969 4732.589844 -103.359375 4752.351562 -112.367188 C 4750.273438 -113.699219 4746.007812 -112.765625 4746.042969 -116.292969 C 4781.863281 -122.160156 4820.691406 -124.820312 4845.53125 -121.066406 C 4857.363281 -127.324219 4866.300781 -123.773438 4877.339844 -124.722656 C 4909 -127.457031 4953.777344 -145.46875 4990.320312 -153.945312 C 5102.9375 -180.117188 5215.917969 -195.148438 5319.453125 -225.125 C 5321.53125 -223.792969 5325.796875 -224.726562 5325.761719 -221.199219 C 5407.472656 -240.507812 5471.46875 -260.945312 5552.101562 -277.9375 C 5551.886719 -282.59375 5545.730469 -281.097656 5540.597656 -280.695312 C 5560.804688 -287.03125 5581.585938 -284.953125 5599.394531 -285.136719 C 5614.71875 -300.960938 5631.605469 -290.5 5656.644531 -296.339844 C 5658.953125 -292.921875 5652.289062 -292.816406 5652.632812 -290.066406 C 5738.167969 -302.710938 5807.691406 -345.652344 5897.0625 -350.945312 C 5899.753906 -354.59375 5904.542969 -357.460938 5911.445312 -359.519531 C 5911.402344 -348.148438 5886.730469 -345.996094 5875.347656 -338.882812 C 5915.101562 -347.3125 5961.773438 -363.378906 6010.925781 -364.320312 C 6023.804688 -383.820312 6072.828125 -384.445312 6109.433594 -397.378906 C 6110.777344 -394.789062 6107.65625 -393.902344 6107.996094 -391.699219 C 6120.171875 -394.542969 6128.292969 -393.148438 6139.800781 -395.355469 C 6138.699219 -401.171875 6129.089844 -398.199219 6120.558594 -396.328125 C 6139.371094 -409.28125 6171.539062 -401.164062 6177.699219 -420.023438 C 6192.160156 -421.121094 6201.570312 -423.183594 6207.957031 -430.46875 C 6209.304688 -427.878906 6206.183594 -426.992188 6206.527344 -424.761719 C 6280.28125 -431.070312 6361.617188 -450.121094 6454.425781 -470.363281 C 6451.773438 -476.675781 6435.945312 -469.308594 6429.625 -471.84375 C 6515.707031 -499.609375 6620.410156 -496.265625 6706.234375 -534.675781 C 6692.230469 -537.144531 6663.378906 -529.75 6652.980469 -529.691406 C 6647.40625 -529.476562 6636.5 -523.738281 6634.539062 -527.289062 C 6664.226562 -533.109375 6673.300781 -540.375 6698.414062 -545.367188 C 6701.980469 -548.167969 6702.53125 -552.09375 6710.179688 -553.367188 C 6705.351562 -548.558594 6712.5625 -548.816406 6712.496094 -543.203125 C 6724.042969 -544.0625 6726.386719 -548.355469 6732.402344 -551.292969 C 6748.261719 -546.953125 6760.730469 -552.800781 6776.371094 -561.28125 C 6869.859375 -564.507812 6981.464844 -604.214844 7083.722656 -620.414062 C 7061.191406 -606.671875 7023.109375 -607.175781 7003.296875 -591.4375 C 7008.746094 -588.015625 7028.480469 -599.382812 7025.921875 -587.660156 C 7037.21875 -589.125 7035.199219 -595.578125 7045.460938 -597.425781 C 7049.273438 -595.953125 7050.1875 -591.914062 7047.378906 -588.933594 C 7067.519531 -597.675781 7106.695312 -605.460938 7134.230469 -601.519531 C 7126.484375 -599.761719 7118.738281 -598.007812 7110.9375 -596.238281 C 7165.664062 -603.972656 7250.953125 -612.378906 7313.113281 -627.890625 C 7320.652344 -620.457031 7324.144531 -630.046875 7345.363281 -629.914062 Z M 5476.886719 -250.164062 C 5489.507812 -253.882812 5503.511719 -254.847656 5493.917969 -246.917969 C 5504.585938 -248.625 5506.3125 -253.644531 5513.429688 -256.679688 C 5502.476562 -254.304688 5506.429688 -259.152344 5509.304688 -262.871094 C 5500.683594 -254.460938 5475.972656 -261.703125 5476.886719 -250.164062 Z M 6732.960938 -537.191406 C 6729.632812 -536.839844 6727.078125 -538.640625 6728.160156 -534.351562 C 6741.355469 -537.5625 6753.644531 -541.875 6761.777344 -541.984375 C 6759.398438 -549.019531 6738.019531 -543.035156 6732.960938 -537.191406 Z M 6027.851562 -337.890625 C 6026.742188 -331.128906 6043.121094 -337.546875 6040.792969 -340.816406 C 6034.324219 -339.539062 6032.078125 -342.164062 6027.851562 -337.890625 Z M 6046.726562 -338.597656 C 6055.167969 -341.660156 6071.238281 -341.867188 6074.78125 -346.742188 C 6060.792969 -344.539062 6053.988281 -347.949219 6046.726562 -338.597656 Z M 5679.222656 -173.160156 C 5687.738281 -169.691406 5700.980469 -179.257812 5703.660156 -173.355469 C 5711.371094 -174.988281 5715.664062 -181.324219 5721.386719 -179.148438 C 5720.867188 -181.398438 5720.371094 -183.65625 5719.84375 -185.933594 C 5707.398438 -181.273438 5689.460938 -178.664062 5679.222656 -173.160156 Z M 6909.964844 -356.414062 C 6917.339844 -359.847656 6928.472656 -361.945312 6929.101562 -367.878906 C 6918.992188 -365.460938 6906.097656 -364.046875 6909.964844 -356.414062 Z M 6969.527344 -357.476562 C 7004.632812 -368.695312 6952.9375 -358.972656 6948.847656 -352.769531 C 6957.375 -355.042969 6964.273438 -355.804688 6969.527344 -357.476562 Z M 4645.769531 268.230469 C 4648.105469 269.160156 4661.984375 266.433594 4660.488281 261.339844 C 4653.660156 262.921875 4645.070312 263.855469 4645.769531 268.230469 Z M 5438.523438 191.566406 C 5440.441406 184.542969 5421.664062 188.3125 5419.652344 192.300781 C 5429.4375 188.398438 5427.535156 196.6875 5438.523438 191.566406 Z M 5479.878906 182.152344 C 5503.546875 180.046875 5522.089844 172.835938 5550.0625 167.996094 C 5535.371094 168.710938 5492.785156 172.511719 5479.878906 182.152344 Z M 5614.722656 153.355469 C 5610.621094 154.109375 5605.820312 155.625 5606.199219 151.703125 C 5591.3125 158.75 5566.644531 160.121094 5554.488281 163.449219 C 5584.1875 162.820312 5597.996094 161.089844 5614.722656 153.355469 Z M 5344.78125 221.761719 C 5327.78125 228.375 5301.375 226.695312 5296.046875 234.613281 C 5327.414062 232.492188 5394.933594 219.589844 5427.898438 204.65625 C 5400.148438 208.925781 5382.515625 208.582031 5357.34375 217.132812 C 5378.804688 218.886719 5338.882812 218.929688 5338.875 219.539062 C 5341.839844 219.261719 5343.300781 220.527344 5344.78125 221.761719 Z M 5634.359375 156 C 5640.40625 154.644531 5646.390625 153.273438 5652.429688 151.890625 C 5651.976562 144.835938 5634.265625 153.078125 5634.359375 156 Z M 5435.671875 202.894531 C 5434.101562 203.355469 5432.683594 203.867188 5433.460938 205.167969 C 5445.003906 203.5 5479.78125 193.539062 5451.164062 199.382812 C 5444.960938 196.875 5443.144531 202.785156 5437.855469 200.625 C 5437.460938 199.617188 5437.003906 198.707031 5434.867188 199.492188 C 5435.148438 200.644531 5435.398438 201.773438 5435.671875 202.894531 Z M 5290.621094 246.535156 C 5288.753906 250.519531 5281.859375 252.609375 5279.226562 256.246094 C 5336.171875 246.523438 5431.859375 223.113281 5496.378906 206.914062 C 5436.882812 210.386719 5359.921875 237.421875 5290.621094 246.535156 Z M 7165.371094 -93.6875 C 7194.332031 -88.761719 7233.824219 -93.269531 7266.675781 -102.410156 C 7232.398438 -96.476562 7191.445312 -104.945312 7165.371094 -93.6875 Z M 7055.453125 -50.890625 C 7064.90625 -47.625 7086.648438 -53.519531 7094.234375 -59.683594 C 7094.398438 -55.652344 7096.289062 -53.46875 7100.941406 -54.085938 C 7104.628906 -58.558594 7098.261719 -56.960938 7101.972656 -61.46875 C 7086.179688 -64.984375 7071.75 -58.214844 7055.453125 -50.890625 Z M 7009.300781 -38.632812 C 7019.53125 -41.539062 7024.328125 -38.871094 7035.546875 -42.800781 C 7032.765625 -51.277344 7008.691406 -42.191406 7009.300781 -38.632812 Z M 7237.691406 -74.445312 C 7246.453125 -74.867188 7254.058594 -76.851562 7269.097656 -79.804688 C 7267.109375 -87.5625 7246.039062 -77.804688 7237.691406 -74.445312 Z M 4948.003906 509.667969 C 4942.234375 513.988281 4922.1875 512.125 4914.761719 519.003906 C 4921.660156 522.855469 4945.546875 516.609375 4948.003906 509.667969 Z M 6076.484375 271.246094 C 6067.285156 274.648438 6061.179688 270.332031 6055.808594 275.953125 C 6067.121094 281.519531 6088.160156 274.394531 6106.054688 269.867188 C 6134.929688 262.582031 6161.441406 252.265625 6190.988281 248.816406 C 6161.410156 245.550781 6097.652344 264.957031 6076.484375 271.246094 Z M 6231.96875 237.691406 C 6243.808594 237.257812 6270.132812 229.496094 6285.519531 221.964844 C 6266.957031 228.171875 6232.410156 226.953125 6231.96875 237.691406 Z M 6388.921875 198.480469 C 6390.023438 206.140625 6363.492188 203.480469 6364.621094 211.136719 C 6378.171875 210.992188 6386.902344 206.625 6397.871094 201.824219 C 6400.113281 206.003906 6401.183594 207.070312 6407.925781 210.207031 C 6458.515625 183.476562 6515.96875 195.796875 6564.480469 169.320312 C 6505.785156 174.464844 6448.003906 195.761719 6388.921875 198.480469 Z M 5914.738281 313.296875 C 5901.566406 316.214844 5883.253906 312.644531 5879.34375 324.925781 C 5926.542969 317.429688 5972.554688 305.984375 6017.402344 286.453125 C 5983.722656 293.667969 5947.289062 306.074219 5914.738281 313.296875 Z M 5914.738281 313.296875 "/>
</g>
</g>
</g>
</g>
</svg>
